<?xml version="1.0" standalone="no"?>
<!DOCTYPE svg PUBLIC "-//W3C//DTD SVG 20010904//EN"
 "http://www.w3.org/TR/2001/REC-SVG-20010904/DTD/svg10.dtd">
<svg version="1.0" xmlns="http://www.w3.org/2000/svg"
 width="494.000000pt" height="174.000000pt" viewBox="0 0 494.000000 174.000000"
 preserveAspectRatio="xMidYMid meet">
<metadata>
Created by potrace 1.16, written by Peter Selinger 2001-2019
</metadata>
<g transform="translate(0.000000,174.000000) scale(0.100000,-0.100000)"
fill="#000000" stroke="none">
<path d="M0 870 l0 -870 2470 0 2470 0 0 870 0 870 -2470 0 -2470 0 0 -870z
m923 715 c126 -20 262 -90 343 -176 113 -122 168 -240 183 -395 26 -267 -106
-506 -348 -629 -244 -123 -560 -73 -737 116 -113 122 -168 240 -183 395 -26
267 106 506 348 629 124 62 254 82 394 60z m2892 -275 c6 0 18 -12 27 -28 36
-61 -11 -121 -89 -113 -21 2 -53 44 -53 69 0 50 41 87 85 77 11 -3 25 -5 30
-5z m393 -6 c18 -5 55 -92 47 -111 -4 -13 -8 -14 -17 -5 -7 7 -31 12 -55 12
-34 0 -46 -5 -59 -24 -8 -14 -14 -35 -12 -48 3 -22 8 -23 102 -28 l100 -5 29
-70 c59 -140 86 -195 95 -195 5 0 16 19 25 43 35 96 49 131 72 178 l25 49 59
0 c31 0 60 -3 64 -6 7 -7 -2 -30 -54 -142 -22 -46 -39 -87 -39 -92 0 -6 -17
-47 -39 -92 -82 -175 -101 -219 -101 -231 0 -7 -9 -23 -20 -35 -17 -18 -32
-22 -85 -22 -36 0 -65 4 -65 10 0 5 18 47 41 93 l41 82 -71 153 c-39 83 -71
156 -71 162 0 5 -25 10 -55 10 l-55 0 0 -180 0 -181 -67 3 -68 3 -3 177 -2
177 -38 3 -37 3 0 50 0 50 37 3 c36 3 36 4 43 55 12 87 42 128 112 152 33 12
81 12 121 -1z m-2121 -25 c91 -37 93 -38 93 -101 0 -79 -3 -81 -73 -45 -51 26
-74 32 -129 32 -57 0 -70 -3 -93 -25 -14 -13 -25 -33 -23 -44 3 -22 55 -51
125 -71 147 -42 198 -83 215 -174 33 -174 -160 -281 -374 -208 -98 34 -108 46
-108 129 0 37 3 68 6 68 3 0 20 -11 38 -25 114 -87 282 -97 302 -18 12 48 -24
76 -141 109 -92 26 -150 59 -174 98 -30 48 -38 124 -17 163 20 40 92 101 131
112 44 13 189 13 222 0z m1455 -119 l3 -55 60 -5 60 -5 3 -44 c4 -53 -5 -61
-75 -61 l-53 0 0 -103 c0 -130 12 -152 75 -143 47 6 55 -2 55 -52 0 -41 -11
-51 -67 -61 -80 -16 -137 6 -174 65 -19 32 -23 54 -27 165 l-5 128 -41 3 c-37
3 -41 6 -44 31 -4 31 -1 34 133 141 44 35 83 61 87 57 4 -3 8 -31 10 -61z
m-903 -70 c75 -38 121 -125 121 -226 0 -76 -18 -122 -67 -175 -37 -40 -54 -50
-98 -59 -70 -15 -120 -1 -165 45 -19 19 -37 35 -42 35 -4 0 -9 -51 -10 -112
l-3 -113 -60 0 -60 0 0 305 0 305 60 0 60 0 3 -37 c2 -21 5 -38 8 -38 2 0 17
14 32 30 51 58 152 76 221 40z m563 -17 c90 -64 125 -156 103 -268 -11 -53
-18 -65 -68 -111 -42 -39 -68 -55 -107 -64 -107 -26 -208 5 -274 82 -45 52
-60 104 -53 186 6 73 36 124 97 167 54 38 85 45 177 42 74 -3 88 -7 125 -34z
m1605 31 c-3 -3 -12 -4 -19 -1 -8 3 -5 6 6 6 11 1 17 -2 13 -5z m-962 -239 l0
-230 -65 0 -65 0 -3 220 c-1 121 0 225 3 233 3 9 22 12 67 10 l63 -3 0 -230z
m882 153 c-2 -13 -4 -3 -4 22 0 25 2 35 4 23 2 -13 2 -33 0 -45z m83 18 c0
-18 5 -37 12 -44 9 -9 8 -12 -5 -12 -11 0 -17 8 -17 21 0 16 -5 20 -20 16 -17
-4 -20 0 -20 28 0 29 2 32 25 27 20 -3 25 -10 25 -36z m37 -18 c-2 -13 -4 -5
-4 17 -1 22 1 32 4 23 2 -10 2 -28 0 -40z m-80 -34 c-3 -3 -12 -4 -19 -1 -8 3
-5 6 6 6 11 1 17 -2 13 -5z"/>
<path d="M525 1229 c-97 -10 -137 -29 -143 -68 -2 -13 5 -32 15 -43 17 -19 24
-20 118 -12 209 18 436 -6 554 -58 25 -11 65 -29 89 -39 48 -22 102 -25 120
-7 16 16 15 63 -2 81 -8 8 -29 19 -48 26 -18 7 -55 22 -83 33 -27 11 -59 24
-70 29 -34 13 -196 49 -270 59 -81 11 -153 11 -280 -1z"/>
<path d="M502 1000 c-61 -9 -82 -23 -82 -56 0 -41 35 -49 148 -34 172 23 381
-13 534 -91 51 -26 84 -19 91 18 7 36 5 39 -53 68 -135 68 -257 96 -440 100
-80 2 -169 0 -198 -5z"/>
<path d="M550 806 c-79 -14 -90 -20 -90 -51 0 -29 29 -37 90 -25 124 25 327 2
424 -47 96 -49 136 -51 136 -7 0 25 -2 26 -131 83 -101 44 -315 67 -429 47z"/>
<path d="M2453 970 c-18 -10 -42 -38 -53 -60 l-21 -41 23 -42 c13 -23 38 -52
57 -64 49 -33 86 -30 127 11 31 31 34 39 34 94 0 52 -4 64 -29 91 -35 37 -88
42 -138 11z"/>
<path d="M2990 973 c-32 -21 -38 -30 -50 -73 -29 -103 72 -189 169 -145 85 38
91 178 10 220 -38 20 -99 19 -129 -2z"/>
</g>
</svg>
